# xmcd
#
# Track frame offsets:
#	150
#	3917
#	22632
#	38017
#	53475
#	69882
#	81637
#	96152
#	108467
#	123427
#	145530
#	147590
#	166440
#	175042
#	184707
#	195262
#	223647
#	237447
#
# Disc length: 3480 seconds
#
# Revision: 0
# Processed by: cddbd v1.4PL0 Copyright (c) Steve Scherf et al.
# Submitted via: EasyCDDAExtractor 4.6.9.1
#
DISCID=e70d9612
DTITLE=Nutty Boy - Bando Corrupto
DYEAR=1999
DGENRE=Rap
TTITLE0=Intro
TTITLE1=Korillo Korrupto
TTITLE2=Baby Rasta Y Gringo
TTITLE3=Korillo Kartel
TTITLE4=M Y M
TTITLE5=Duke
TTITLE6=Memo Y Vale
TTITLE7=Miguel Y Nutty
TTITLE8=Ogm Y Oakley
TTITLE9=Cultura Profetica
TTITLE10=Intro
TTITLE11=Cavalucci Y Nutty
TTITLE12=Horny Y Panty Man
TTITLE13=Miguelito
TTITLE14=Nutty Boy
TTITLE15=Korrupto Mix
TTITLE16=Yaviah
TTITLE17=La Familia
EXTD=
EXTT0=
EXTT1=
EXTT2=
EXTT3=
EXTT4=
EXTT5=
EXTT6=
EXTT7=
EXTT8=
EXTT9=
EXTT10=
EXTT11=
EXTT12=
EXTT13=
EXTT14=
EXTT15=
EXTT16=
EXTT17=
PLAYORDER=
